<?xml version="1.0" encoding="UTF-8" standalone="no"?>
<svg
   xmlns:dc="http://purl.org/dc/elements/1.1/"
   xmlns:cc="http://creativecommons.org/ns#"
   xmlns:rdf="http://www.w3.org/1999/02/22-rdf-syntax-ns#"
   xmlns:svg="http://www.w3.org/2000/svg"
   xmlns="http://www.w3.org/2000/svg"
   version="1.1"
   id="svg2"
   viewBox="0 0 666.90077 128.1"
   height="36.152668mm"
   width="188.21422mm">
  <defs
     id="defs4" />
  <metadata
     id="metadata7">
    <rdf:RDF>
      <cc:Work
         rdf:about="">
        <dc:format>image/svg+xml</dc:format>
        <dc:type
           rdf:resource="http://purl.org/dc/dcmitype/StillImage" />
        <dc:title></dc:title>
      </cc:Work>
    </rdf:RDF>
  </metadata>
  <g
     transform="translate(-8.8734554,-15.690338)"
     id="layer1">
    <g
       id="text3336"
       style="font-style:normal;font-weight:normal;font-size:40px;line-height:125%;font-family:sans-serif;letter-spacing:-15px;word-spacing:0px;fill:#000000;fill-opacity:1;stroke:none;stroke-width:1px;stroke-linecap:butt;stroke-linejoin:miter;stroke-opacity:1">
      <path
         id="path3341"
         style="font-style:normal;font-variant:normal;font-weight:bold;font-stretch:normal;font-size:152.5px;font-family:'League Spartan';-inkscape-font-specification:'League Spartan Bold';letter-spacing:-10px"
         d="m 116.84346,141.50284 31.72,0 35.8375,-125.812502 -31.72,0 -21.5025,86.315002 -0.7625,0 -22.875,-86.315002 -21.655005,0 -22.875,86.315002 -0.7625,0 -21.5025,-86.315002 -31.8724996,0 35.8374996,125.812502 31.8725,0 20.13,-70.607502 20.130005,70.607502 z" />
      <path
         id="path3343"
         style="font-style:normal;font-variant:normal;font-weight:bold;font-stretch:normal;font-size:152.5px;font-family:'League Spartan';-inkscape-font-specification:'League Spartan Bold';letter-spacing:-10px"
         d="m 249.7026,106.12284 c 0.1525,-0.915 0.1525,-2.5925 0.1525,-3.66 0,-27.450002 -18.1475,-41.480002 -41.9375,-41.480002 -23.6375,0 -43.005,18.605 -43.005,41.480002 0,22.7225 19.3675,41.3275 43.005,41.3275 17.385,0 31.72,-5.6425 40.565,-20.435 l -19.52,-9.76 c -6.5575,7.015 -10.37,8.6925 -19.0625,8.6925 -6.8625,0 -16.9275,-4.1175 -16.9275,-16.165 l 56.73,0 z M 193.7351,91.177838 c 0.4575,-7.1675 5.6425,-12.6575 14.945,-12.6575 7.93,0 13.5725,4.4225 14.7925,12.6575 l -29.7375,0 z" />
      <path
         id="path3345"
         style="font-style:normal;font-variant:normal;font-weight:bold;font-stretch:normal;font-size:152.5px;font-family:'League Spartan';-inkscape-font-specification:'League Spartan Bold';letter-spacing:-10px"
         d="m 252.59123,15.690338 0,125.812502 28.67,0 0,-46.665002 17.2325,0 c 24.5525,0 43.005,-14.4875 43.005,-40.4125 0,-26.0775 -18.4525,-38.735 -43.005,-38.735 l -45.9025,0 z m 28.67,56.2725 0,-33.3975 8.0825,0 c 11.285,0 21.96,3.8125 21.96,16.775 0,12.81 -10.675,16.6225 -21.96,16.6225 l -8.0825,0 z" />
      <path
         id="path3347"
         style="font-style:normal;font-variant:normal;font-weight:bold;font-stretch:normal;font-size:152.5px;font-family:'League Spartan';-inkscape-font-specification:'League Spartan Bold';letter-spacing:-10px"
         d="m 340.28654,141.50284 26.9925,0 0,-41.175 c 0,-1.982502 1.9825,-15.860002 16.0125,-15.860002 8.9975,0 14.03,4.27 14.03,4.27 l 11.285,-22.875 c 0,0 -7.015,-4.88 -17.08,-4.88 -15.4025,0 -23.9425,13.5725 -23.9425,13.5725 l -0.305,0 0,-11.285 -26.9925,0 0,78.232502 z" />
      <path
         id="path3349"
         style="font-style:normal;font-variant:normal;font-weight:bold;font-stretch:normal;font-size:152.5px;font-family:'League Spartan';-inkscape-font-specification:'League Spartan Bold';letter-spacing:-10px"
         d="m 399.70264,102.46284 c 0,24.095 18.91,41.3275 47.1225,41.3275 26.9925,0 46.665,-17.2325 46.665,-41.3275 0,-24.400002 -20.74,-41.480002 -46.665,-41.480002 -26.3825,0 -47.1225,17.08 -47.1225,41.480002 z m 28.67,0 c 0,-10.827502 8.0825,-18.452502 18.3,-18.452502 10.065,0 18.1475,7.625 18.1475,18.452502 0,10.675 -7.625,18.3 -18.1475,18.3 -10.98,0 -18.3,-7.625 -18.3,-18.3 z" />
      <path
         id="path3351"
         style="font-style:normal;font-variant:normal;font-weight:bold;font-stretch:normal;font-size:152.5px;font-family:'League Spartan';-inkscape-font-specification:'League Spartan Bold';letter-spacing:-10px"
         d="m 490.37646,102.46284 c 0,24.095 18.91,41.3275 47.1225,41.3275 26.9925,0 46.665,-17.2325 46.665,-41.3275 0,-24.400002 -20.74,-41.480002 -46.665,-41.480002 -26.3825,0 -47.1225,17.08 -47.1225,41.480002 z m 28.67,0 c 0,-10.827502 8.0825,-18.452502 18.3,-18.452502 10.065,0 18.1475,7.625 18.1475,18.452502 0,10.675 -7.625,18.3 -18.1475,18.3 -10.98,0 -18.3,-7.625 -18.3,-18.3 z" />
      <path
         id="path3353"
         style="font-style:normal;font-variant:normal;font-weight:bold;font-stretch:normal;font-size:152.5px;font-family:'League Spartan';-inkscape-font-specification:'League Spartan Bold';letter-spacing:-10px"
         d="m 605.62424,63.270338 -32.025,0 41.9375,78.232502 18.3,0 41.9375,-78.232502 -32.025,0 -19.0625,42.547502 -19.0625,-42.547502 z" />
    </g>
  </g>
</svg>
